<?xml version="1.0" encoding="UTF-8"?>
<svg version="1.1" viewBox="0 0 2048 448" width="479" height="105" xmlns="http://www.w3.org/2000/svg">
<path transform="translate(0)" d="m0 0h2048v448h-2048z" fill="#FDFDFD"/>
<path transform="translate(63,69)" d="m0 0h1l1 162 2 18 5 22 7 19 9 17 11 16 10 11 12 12 14 10 16 9 16 7 15 5 18 4 9 1h27l21-3 19-5 16-6 19-10 16-12 12-11 6-6 4 1 12 11 11 9 13 11 9 6-1 4-22 22-14 11-15 10-25 13-20 8-24 7-31 6h-242v-248l9-39 7-20 11-23 12-19 12-16 9-11z" fill="#4ABBE9"/>
<path transform="translate(221,127)" d="m0 0 15 1 14 3 13 5 17 9 10 8 10 10 10 15 8 19 3 12 1 8v11l-3 18-6 17-7 13-10 13-9 9-13 9-17 8-14 4-6 1h-24l-16-3-15-6-13-8-11-9-10-11-9-14-6-14-4-14-1-6v-22l4-18 6-15 8-13 9-10 8-8 14-9 15-7 14-4z" fill="#4ABBE9"/>
<path transform="translate(450,135)" d="m0 0 100 1 16 4 14 7 8 7 6 9 3 11v11l-3 11-8 10-10 7-7 2v2l10 3 9 6 8 9 5 11 2 9v12l-4 13-9 11-11 8-8 4-17 4-9 1h-95l-1-145v-27z" fill="#FFC221"/>
<path transform="translate(1376,173)" d="m0 0h13l16 4 9 5 9 7v-15h44v133l-4 14-7 12-10 10-14 8-12 4-16 3h-20l-17-3-15-5-16-8-1-5 13-26 5 1 15 7 11 3h19l12-4 8-6 4-11 1-16-14 10-10 4-13 2-11-1-14-4-10-6-11-11-8-16-4-16-1-12 2-16 6-18 7-10 7-7 12-7 9-3z" fill="#FFC221"/>
<path transform="translate(201)" d="m0 0h42l33 6 30 10 25 12 23 14 14 11 10 9 14 14 5 4-2 4-13 11-14 11-14 12-4 3-4-1-11-12-14-11-17-11-21-10-21-6-15-3-8-1h-31l-18 3-21 6-18 8-16 9-6 3v-71l5-4 11-5 21-7 25-6z" fill="#4ABBE9"/>
<path transform="translate(679,173)" d="m0 0h18l15 3 16 6 10 6 8 7 9 14 6 16 2 11v10l-3 16-7 16-10 13-11 8-12 5-13 4-15 2h-9l-17-3-15-5-11-6-11-11-8-14-4-11-2-9v-20l4-16 7-14 11-12 9-6 14-6 12-3z" fill="#FFC221"/>
<path transform="translate(835,173)" d="m0 0h19l15 3 14 5 11 6 8 7 8 11 5 11 4 14v23l-4 15-8 15-10 11-9 6-24 8-14 2h-9l-18-3-15-5-12-7-9-9-8-13-5-13-2-10v-21l4-14 7-14 11-12 11-7 15-6z" fill="#FFC221"/>
<path transform="translate(941,125)" d="m0 0h44l1 86 1 6 5-4 7-8 16-17 14-14h48l-2 5-7 7-7 8-12 13-17 17 1 6 12 20 34 56v2h-51l-5-8-15-27-8-13h-3l-9 10-2 9-1 29h-42l-1-1z" fill="#FFC221"/>
<path transform="translate(1571,131)" d="m0 0h11l15 2 18 6 21 11 13 10-1 5-9 12-11 13-4 4-9-9-11-7-12-5-4-1h-15l-10 3-10 6-7 6-6 10-4 11-2 10v9l4 14 7 12 8 8 12 7 7 2h16l12-4 13-7 9-7 5 1 11 12 7 7 5 7-6 7-13 10-15 8-20 6-12 2h-15l-19-4-13-5-11-6-13-11-10-12-9-16-5-16-2-10v-24l4-16 10-21 11-13 9-8 15-9 24-8z" fill="#FFC221"/>
<path transform="translate(1715,173)" d="m0 0h21l16 3 12 5 9 6 6 7 5 10 2 6 1 9v89h-42l-1-1-1-12-5 3-6 5-11 5-18 3-13-1-11-4-8-5-7-8-6-10-2-10 1-14 3-9 6-8 8-7 11-5 10-2 49-1-4-10-8-7-7-3h-11l-20 4-17 6-11-27v-3l10-5 19-6 10-2z" fill="#FFC221"/>
<path transform="translate(1970,173)" d="m0 0h16l17 3 16 7 9 7 8 9 8 16 4 15v23h-94l6 11 9 8 7 3h18l12-5 9-6 4 2 13 13 5 4 1 4-5 6-10 7-13 5-17 4-7 1h-12l-17-3-14-5-11-7-8-8-7-11-5-13-2-10v-26l5-16 7-13 8-9 12-8 16-6z" fill="#FFC221"/>
<path transform="translate(1258,172)" d="m0 0 14 1 14 5 9 6 8 10 5 11 2 13v90h-43l-1-8-1-62-2-12-5-8-10-5h-9l-10 4-8 9-3 8-1 18v56h-42l-2-1-1-75v-57l4-1 42 1-1 16-1 2 6-2 2-4 8-7 12-6z" fill="#FFC221"/>
<path transform="translate(0,251)" d="m0 0 2 3 8 32 7 20 12 25 11 18 11 14 11 13 15 15 14 11 18 12 23 12 20 8 23 7 24 6v1h-199z" fill="#FDFDFD"/>
<path transform="translate(206,162)" d="m0 0h25l12 1 1 1 1 10v30l39 1 2 2v35l-2 1h-39l-1 42-38 1-1-1-1-41-41-1v-38h42v-42z" fill="#FDFDFD"/>
<path transform="translate(1898,173)" d="m0 0 5 1v39l-17 1-9 3-9 7-5 6-2 5-1 6-1 67h-42l-1-1-1-14v-119l45 1v9l-1 10 4-2 4-6 11-8 10-4z" fill="#FFC221"/>
<path transform="translate(1096,174)" d="m0 0h44v134h-42l-2-7z" fill="#FFC221"/>
<path transform="translate(682,209)" d="m0 0h12l11 4 7 7 4 8 2 11-1 12-4 10-6 8-5 4-6 2h-16l-10-6-7-9-4-13 1-14 4-11 7-8 8-4z" fill="#FDFDFD"/>
<path transform="translate(839,209)" d="m0 0h12l9 3 9 8 4 8 2 10v9l-3 10-6 10-8 6-5 2h-15l-8-4-5-4-5-7-3-8-1-11 3-14 6-10 9-6z" fill="#FDFDFD"/>
<path transform="translate(1391,206)" d="m0 0h11l10 5 8 9 3 9v17l-5 12-4 5-6 4-8 2-11-1-10-5-6-7-4-10v-14l3-10 5-8 9-6z" fill="#FDFDFD"/>
<path transform="translate(495,236)" d="m0 0h38l10 2 8 5 4 6v11l-4 6-7 6-5 1h-44z" fill="#FDFDFD"/>
<path transform="translate(495,170)" d="m0 0h14l28 1 7 3 5 6 1 3v8l-5 8-6 4-3 1h-41z" fill="#FDFDFD"/>
<path transform="translate(1110,114)" d="m0 0h14l8 4 6 7 4 10-2 10-6 9-8 5-5 1h-8l-9-4-6-7-3-7-1-9 3-9 4-5 6-4z" fill="#FFC221"/>
<path transform="translate(1722,251)" d="m0 0h19l2 1 1 8-3 8-7 8-9 4-10 1-9-3-6-5-2-5 2-10 4-5 3-1z" fill="#FDFDFD"/>
<path transform="translate(1977,204)" d="m0 0h7l9 4 7 6 5 10 1 5-6 1h-22l-24-1 1-6 6-10 8-6z" fill="#FDFDFD"/>
</svg>
